<svg style="position: absolute; width: 0; height: 0; overflow: hidden;" xmlns="http://www.w3.org/2000/svg" version="1.0">
	<defs>
		<symbol id="icon-search" viewBox="0 0 24 24"><circle cx="11" cy="11" r="8"></circle><line x1="21" y1="21" x2="16.65" y2="16.65"></line></symbol>
		<symbol id="icon-x" viewBox="0 0 24 24"><line x1="18" y1="6" x2="6" y2="18"></line><line x1="6" y1="6" x2="18" y2="18"></line></symbol>
		<symbol id="icon-arrow-left" viewBox="0 0 24 24"><line x1="19" y1="12" x2="5" y2="12"></line><polyline points="12 19 5 12 12 5"></polyline></symbol>
		<symbol id="icon-arrow-right" viewBox="0 0 24 24"><line x1="5" y1="12" x2="19" y2="12"></line><polyline points="12 5 19 12 12 19"></polyline></symbol>
		<symbol id="icon-user" viewBox="0 0 24 24"><path d="M20 21v-2a4 4 0 0 0-4-4H8a4 4 0 0 0-4 4v2"></path><circle cx="12" cy="7" r="4"></circle></symbol>
		<symbol id="icon-message-square" viewBox="0 0 24 24"><path d="M21 15a2 2 0 0 1-2 2H7l-4 4V5a2 2 0 0 1 2-2h14a2 2 0 0 1 2 2z"></path></symbol>
		<symbol id="icon-clock" viewBox="0 0 24 24"><circle cx="12" cy="12" r="10"></circle><polyline points="12 6 12 12 16 14"></polyline></symbol>
		<symbol id="icon-shopping-cart" viewBox="0 0 24 24"><circle cx="9" cy="21" r="1"></circle><circle cx="20" cy="21" r="1"></circle><path d="M1 1h4l2.68 13.39a2 2 0 0 0 2 1.61h9.72a2 2 0 0 0 2-1.61L23 6H6"></path></symbol>
		<symbol id="icon-bookmark" viewBox="0 0 24 24"><path d="M19 21l-7-5-7 5V5a2 2 0 0 1 2-2h10a2 2 0 0 1 2 2z"></path></symbol>
		<symbol id="icon-chevron-down" viewBox="0 0 24 24"><polyline points="6 9 12 15 18 9"></polyline></symbol>
		<!-- Social Icons -->
		<symbol id="icon-behance" viewBox="24 16 16 32">
			<g><path d="M29.1,31c0.8-0.4,1.5-0.9,1.9-1.5c0.4-0.6,0.6-1.4,0.6-2.3c0-0.9-0.1-1.6-0.4-2.2 c-0.3-0.6-0.7-1.1-1.2-1.4c-0.5-0.4-1.1-0.6-1.9-0.8c-0.7-0.2-1.5-0.2-2.4-0.2H17v18.5h8.9c0.8,0,1.6-0.1,2.4-0.3 c0.8-0.2,1.5-0.5,2.1-1c0.6-0.4,1.1-1,1.5-1.7c0.4-0.7,0.5-1.5,0.5-2.4c0-1.2-0.3-2.1-0.8-3C31.1,31.9,30.2,31.3,29.1,31z  M21.1,25.7h3.8c0.4,0,0.7,0,1,0.1c0.3,0.1,0.6,0.2,0.9,0.3c0.3,0.2,0.5,0.4,0.6,0.6c0.2,0.3,0.2,0.6,0.2,1.1c0,0.8-0.2,1.3-0.7,1.7 c-0.5,0.3-1.1,0.5-1.8,0.5h-4.1V25.7z M28.2,36.7c-0.2,0.3-0.4,0.6-0.7,0.7c-0.3,0.2-0.6,0.3-1,0.4c-0.4,0.1-0.7,0.1-1.1,0.1h-4.3 v-5.1h4.4c0.9,0,1.6,0.2,2.1,0.6c0.5,0.4,0.8,1.1,0.8,2C28.4,36,28.3,36.4,28.2,36.7z M46.7,32.3c-0.2-0.9-0.6-1.8-1.2-2.5 C45,29,44.3,28.4,43.5,28c-0.8-0.4-1.8-0.7-3-0.7c-1,0-1.9,0.2-2.8,0.5c-0.8,0.4-1.6,0.9-2.2,1.5c-0.6,0.6-1.1,1.4-1.4,2.2 c-0.3,0.9-0.5,1.8-0.5,2.8c0,1,0.2,2,0.5,2.8c0.3,0.9,0.8,1.6,1.4,2.2c0.6,0.6,1.3,1.1,2.2,1.4c0.9,0.3,1.8,0.5,2.9,0.5 c1.5,0,2.8-0.3,3.9-1c1.1-0.7,1.9-1.8,2.4-3.4h-3.2c-0.1,0.4-0.4,0.8-1,1.2c-0.5,0.4-1.2,0.6-1.9,0.6c-1,0-1.8-0.3-2.4-0.8 c-0.6-0.5-0.9-1.5-0.9-2.6H47C47,34.2,47,33.2,46.7,32.3z M37.3,32.9c0-0.3,0.1-0.6,0.2-0.9c0.1-0.3,0.3-0.6,0.5-0.9 c0.2-0.3,0.5-0.5,0.9-0.7c0.4-0.2,0.9-0.3,1.5-0.3c0.9,0,1.6,0.3,2.1,0.7c0.4,0.5,0.8,1.2,0.8,2.1H37.3z M44.1,23.8h-7.5v1.8h7.5 V23.8z"/></g>
		</symbol>
		<symbol id="icon-dribbble" viewBox="24 16 16 32">
			<g><path d="M32,48c-8.8,0-16-7.2-16-16s7.2-16,16-16 s16,7.2,16,16S40.8,48,32,48z M45.5,34.2C45,34,41.3,32.9,37,33.6c1.8,4.9,2.5,8.9,2.7,9.7C42.7,41.3,44.9,38,45.5,34.2z M37.3,44.6 c-0.2-1.2-1-5.4-2.9-10.4c0,0-0.1,0-0.1,0c-7.7,2.7-10.5,8-10.7,8.5c2.3,1.8,5.2,2.9,8.4,2.9C33.9,45.7,35.7,45.3,37.3,44.6z  M21.8,41.2c0.3-0.5,4.1-6.7,11.1-9c0.2-0.1,0.4-0.1,0.5-0.2c-0.3-0.8-0.7-1.6-1.1-2.3c-6.8,2-13.4,2-14,1.9c0,0.1,0,0.3,0,0.4 C18.3,35.5,19.7,38.7,21.8,41.2z M18.6,29.2c0.6,0,6.2,0,12.6-1.7c-2.3-4-4.7-7.4-5.1-7.9C22.4,21.5,19.5,25,18.6,29.2z M28.8,18.7 c0.4,0.5,2.9,3.9,5.1,8c4.9-1.8,6.9-4.6,7.2-4.9c-2.4-2.1-5.6-3.4-9.1-3.4C30.9,18.4,29.8,18.5,28.8,18.7z M42.6,23.4 c-0.3,0.4-2.6,3.3-7.6,5.4c0.3,0.7,0.6,1.3,0.9,2c0.1,0.2,0.2,0.5,0.3,0.7c4.5-0.6,9.1,0.3,9.5,0.4C45.6,28.7,44.5,25.7,42.6,23.4z" /></g>
		</symbol>
		<symbol id="icon-email" viewBox="24 16 16 32">
			<g><path d="M17,22v20h30V22H17z M41.1,25L32,32.1L22.9,25H41.1z M20,39V26.6l12,9.3l12-9.3V39H20z"/></g>
		</symbol>
		<symbol id="icon-facebook" viewBox="0 0 512 512">
			<path d="m512 258c0-142-115-256-256-256-141 0-256 114-256 256 0 127 94 233 216 252l0-178-65 0 0-74 65 0 0-57c0-64 38-99 97-99 28 0 57 5 57 5l0 63-32 0c-32 0-42 19-42 40l0 48 71 0-11 74-60 0 0 178c122-19 216-125 216-252z"/>
		</symbol>
		<symbol id="icon-flickr" viewBox="24 16 16 32">
		<g><path d="M32,16c-8.8,0-16,7.2-16,16s7.2,16,16,16s16-7.2,16-16S40.8,16,32,16z M26,37c-2.8,0-5-2.2-5-5 s2.2-5,5-5s5,2.2,5,5S28.8,37,26,37z M38,37c-2.8,0-5-2.2-5-5s2.2-5,5-5s5,2.2,5,5S40.8,37,38,37z"/></g>
		</symbol>
		<symbol id="icon-foursquare" viewBox="24 16 16 32">
			<g><path d="M41.5,17c0,0-14.3,0-16.5,0c-2.3,0-3,1.7-3,2.8c0,1.1,0,26.3,0,26.3c0,1.2,0.7,1.7,1,1.8 c0.4,0.1,1.4,0.3,2-0.4c0,0,7.8-9.1,7.9-9.2c0.2-0.2,0.2-0.2,0.4-0.2c0.4,0,3.4,0,5.1,0c2.1,0,2.5-1.5,2.7-2.4 c0.2-0.7,2.3-11.3,2.9-14.7C44.6,18.4,43.9,17,41.5,17z M41.1,35.7c0.2-0.7,2.3-11.3,2.9-14.7 M40.5,21.5l-0.7,3.6 c-0.1,0.4-0.6,0.8-1,0.8c-0.5,0-6.4,0-6.4,0c-0.7,0-1.2,0.5-1.2,1.2v0.8c0,0.7,0.5,1.2,1.2,1.2c0,0,5,0,5.5,0c0.5,0,1,0.6,0.9,1.1 c-0.1,0.5-0.6,3.3-0.7,3.6c-0.1,0.3-0.4,0.8-1,0.8c-0.5,0-4.5,0-4.5,0c-0.8,0-1.1,0.1-1.6,0.8c-0.5,0.7-5.4,6.5-5.4,6.5 c0,0.1-0.1,0-0.1,0V21.4c0-0.5,0.4-1,1-1c0,0,12.8,0,13.3,0C40.2,20.4,40.6,20.9,40.5,21.5z"/></g>
		</symbol>
		<symbol id="icon-github" viewBox="24 16 16 32">
			<g><path d="M32,16c-8.8,0-16,7.2-16,16c0,7.1,4.6,13.1,10.9,15.2 c0.8,0.1,1.1-0.3,1.1-0.8c0-0.4,0-1.4,0-2.7c-4.5,1-5.4-2.1-5.4-2.1c-0.7-1.8-1.8-2.3-1.8-2.3c-1.5-1,0.1-1,0.1-1 c1.6,0.1,2.5,1.6,2.5,1.6c1.4,2.4,3.7,1.7,4.7,1.3c0.1-1,0.6-1.7,1-2.1c-3.6-0.4-7.3-1.8-7.3-7.9c0-1.7,0.6-3.2,1.6-4.3 c-0.2-0.4-0.7-2,0.2-4.2c0,0,1.3-0.4,4.4,1.6c1.3-0.4,2.6-0.5,4-0.5c1.4,0,2.7,0.2,4,0.5c3.1-2.1,4.4-1.6,4.4-1.6 c0.9,2.2,0.3,3.8,0.2,4.2c1,1.1,1.6,2.5,1.6,4.3c0,6.1-3.7,7.5-7.3,7.9c0.6,0.5,1.1,1.5,1.1,3c0,2.1,0,3.9,0,4.4 c0,0.4,0.3,0.9,1.1,0.8C43.4,45.1,48,39.1,48,32C48,23.2,40.8,16,32,16z"/></g>
		</symbol>
		<symbol id="icon-instagram" viewBox="24 16 16 32">
			<g><path d="M46.91,25.816c-0.073-1.597-0.326-2.687-0.697-3.641c-0.383-0.986-0.896-1.823-1.73-2.657c-0.834-0.834-1.67-1.347-2.657-1.73c-0.954-0.371-2.045-0.624-3.641-0.697C36.585,17.017,36.074,17,32,17s-4.585,0.017-6.184,0.09c-1.597,0.073-2.687,0.326-3.641,0.697c-0.986,0.383-1.823,0.896-2.657,1.73c-0.834,0.834-1.347,1.67-1.73,2.657c-0.371,0.954-0.624,2.045-0.697,3.641C17.017,27.415,17,27.926,17,32c0,4.074,0.017,4.585,0.09,6.184c0.073,1.597,0.326,2.687,0.697,3.641c0.383,0.986,0.896,1.823,1.73,2.657c0.834,0.834,1.67,1.347,2.657,1.73c0.954,0.371,2.045,0.624,3.641,0.697C27.415,46.983,27.926,47,32,47s4.585-0.017,6.184-0.09c1.597-0.073,2.687-0.326,3.641-0.697c0.986-0.383,1.823-0.896,2.657-1.73c0.834-0.834,1.347-1.67,1.73-2.657c0.371-0.954,0.624-2.045,0.697-3.641C46.983,36.585,47,36.074,47,32S46.983,27.415,46.91,25.816z M44.21,38.061c-0.067,1.462-0.311,2.257-0.516,2.785c-0.272,0.7-0.597,1.2-1.122,1.725c-0.525,0.525-1.025,0.85-1.725,1.122c-0.529,0.205-1.323,0.45-2.785,0.516c-1.581,0.072-2.056,0.087-6.061,0.087s-4.48-0.015-6.061-0.087c-1.462-0.067-2.257-0.311-2.785-0.516c-0.7-0.272-1.2-0.597-1.725-1.122c-0.525-0.525-0.85-1.025-1.122-1.725c-0.205-0.529-0.45-1.323-0.516-2.785c-0.072-1.582-0.087-2.056-0.087-6.061s0.015-4.48,0.087-6.061c0.067-1.462,0.311-2.257,0.516-2.785c0.272-0.7,0.597-1.2,1.122-1.725c0.525-0.525,1.025-0.85,1.725-1.122c0.529-0.205,1.323-0.45,2.785-0.516c1.582-0.072,2.056-0.087,6.061-0.087s4.48,0.015,6.061,0.087c1.462,0.067,2.257,0.311,2.785,0.516c0.7,0.272,1.2,0.597,1.725,1.122c0.525,0.525,0.85,1.025,1.122,1.725c0.205,0.529,0.45,1.323,0.516,2.785c0.072,1.582,0.087,2.056,0.087,6.061S44.282,36.48,44.21,38.061z M32,24.297c-4.254,0-7.703,3.449-7.703,7.703c0,4.254,3.449,7.703,7.703,7.703c4.254,0,7.703-3.449,7.703-7.703C39.703,27.746,36.254,24.297,32,24.297z M32,37c-2.761,0-5-2.239-5-5c0-2.761,2.239-5,5-5s5,2.239,5,5C37,34.761,34.761,37,32,37z M40.007,22.193c-0.994,0-1.8,0.806-1.8,1.8c0,0.994,0.806,1.8,1.8,1.8c0.994,0,1.8-0.806,1.8-1.8C41.807,22.999,41.001,22.193,40.007,22.193z"/></g>
		</symbol>
		<symbol id="icon-itunes" viewBox="24 16 16 32">
		<g><path d="M41.784,28.836c0,3.5,0.002,7-0.002,10.499c0,0.767-0.105,1.519-0.446,2.217c-0.53,1.086-1.399,1.768-2.55,2.095c-0.642,0.183-1.297,0.288-1.965,0.318c-1.749,0.083-3.261-1.103-3.574-2.823c-0.26-1.419,0.419-2.984,1.91-3.715c0.595-0.294,1.23-0.458,1.871-0.596c0.695-0.15,1.393-0.282,2.084-0.441c0.504-0.116,0.84-0.424,0.939-0.948c0.023-0.116,0.033-0.236,0.033-0.355c0.002-3.336,0.002-6.67-0.002-10.005c0-0.114-0.019-0.23-0.047-0.34c-0.072-0.277-0.274-0.446-0.559-0.43c-0.294,0.017-0.584,0.064-0.873,0.122c-1.397,0.275-2.793,0.559-4.189,0.84c-1.425,0.286-2.851,0.576-4.278,0.864c-0.842,0.171-1.684,0.34-2.525,0.51c-0.03,0.006-0.059,0.016-0.088,0.023c-0.509,0.141-0.693,0.374-0.717,0.9c-0.003,0.08-0.002,0.16-0.002,0.241c-0.002,4.782,0,9.565-0.003,14.345c0,0.773-0.086,1.537-0.396,2.255c-0.512,1.18-1.416,1.914-2.636,2.269c-0.645,0.186-1.307,0.293-1.976,0.316c-1.762,0.066-3.225-1.105-3.527-2.838c-0.261-1.494,0.422-3.098,2.119-3.816c0.656-0.275,1.344-0.427,2.036-0.571c0.527-0.111,1.056-0.211,1.582-0.324c0.703-0.153,1.07-0.595,1.1-1.313c0.003-0.094,0.002-0.183,0.002-0.277c0-5.44,0-10.882,0.003-16.323c0-0.227,0.023-0.46,0.077-0.681c0.128-0.524,0.502-0.823,1.003-0.953c0.469-0.122,0.947-0.207,1.422-0.304c1.347-0.272,2.694-0.543,4.042-0.814c1.393-0.282,2.784-0.562,4.176-0.843c1.23-0.249,2.46-0.501,3.693-0.743c0.404-0.08,0.814-0.161,1.22-0.194c0.57-0.045,0.961,0.313,1.019,0.886c0.014,0.136,0.022,0.274,0.022,0.412C41.786,21.814,41.786,25.325,41.784,28.836L41.784,28.836z"/></g>
		</symbol>
		<symbol id="icon-linkedin" viewBox="24 16 16 32">
			<g><path d="M20.4,44h5.4V26.6h-5.4V44z M23.1,18c-1.7,0-3.1,1.4-3.1,3.1c0,1.7,1.4,3.1,3.1,3.1 c1.7,0,3.1-1.4,3.1-3.1C26.2,19.4,24.8,18,23.1,18z M39.5,26.2c-2.6,0-4.4,1.4-5.1,2.8h-0.1v-2.4h-5.2V44h5.4v-8.6 c0-2.3,0.4-4.5,3.2-4.5c2.8,0,2.8,2.6,2.8,4.6V44H46v-9.5C46,29.8,45,26.2,39.5,26.2z"/></g>
		</symbol>
		<symbol id="icon-medium" viewBox="24 16 16 32">
			<g><path d="M46.908,23.95c-0.006-0.005-0.011-0.01-0.018-0.014l-0.01-0.005l-9.05-4.525c-0.061-0.031-0.125-0.051-0.19-0.068c-0.082-0.021-0.165-0.034-0.249-0.034c-0.347,0-0.692,0.174-0.878,0.477l-5.21,8.467l6.538,10.625l9.095-14.779C46.966,24.046,46.952,23.985,46.908,23.95z M28.433,35.958L37,40.241L28.433,26.32V35.958zM38.287,40.884l7.052,3.526C46.256,44.869,47,44.548,47,43.693V26.726L38.287,40.884z M26.946,23.964l-8.839-4.419c-0.16-0.08-0.312-0.118-0.449-0.118c-0.387,0-0.659,0.299-0.659,0.802v19.083c0,0.511,0.374,1.116,0.831,1.344l7.785,3.892c0.2,0.1,0.39,0.147,0.561,0.147c0.484,0,0.823-0.374,0.823-1.003V24.051C27,24.014,26.979,23.98,26.946,23.964z"/></g>
		</symbol>
		<symbol id="icon-pinterest" viewBox="24 16 16 32">
			<g><path d="M32,16c-8.8,0-16,7.2-16,16c0,6.6,3.9,12.2,9.6,14.7c0-1.1,0-2.5,0.3-3.7 c0.3-1.3,2.1-8.7,2.1-8.7s-0.5-1-0.5-2.5c0-2.4,1.4-4.1,3.1-4.1c1.5,0,2.2,1.1,2.2,2.4c0,1.5-0.9,3.7-1.4,5.7 c-0.4,1.7,0.9,3.1,2.5,3.1c3,0,5.1-3.9,5.1-8.5c0-3.5-2.4-6.1-6.7-6.1c-4.9,0-7.9,3.6-7.9,7.7c0,1.4,0.4,2.4,1.1,3.1 c0.3,0.3,0.3,0.5,0.2,0.9c-0.1,0.3-0.3,1-0.3,1.3c-0.1,0.4-0.4,0.6-0.8,0.4c-2.2-0.9-3.3-3.4-3.3-6.1c0-4.5,3.8-10,11.4-10 c6.1,0,10.1,4.4,10.1,9.2c0,6.3-3.5,11-8.6,11c-1.7,0-3.4-0.9-3.9-2c0,0-0.9,3.7-1.1,4.4c-0.3,1.2-1,2.5-1.6,3.4 c1.4,0.4,3,0.7,4.5,0.7c8.8,0,16-7.2,16-16C48,23.2,40.8,16,32,16z"/></g>
		</symbol>
		<symbol id="icon-spotify" viewBox="24 16 16 32">
			<g><path d="M32,16c-8.8,0-16,7.2-16,16c0,8.8,7.2,16,16,16c8.8,0,16-7.2,16-16C48,23.2,40.8,16,32,16 M39.3,39.1c-0.3,0.5-0.9,0.6-1.4,0.3c-3.8-2.3-8.5-2.8-14.1-1.5c-0.5,0.1-1.1-0.2-1.2-0.7c-0.1-0.5,0.2-1.1,0.8-1.2 c6.1-1.4,11.3-0.8,15.5,1.8C39.5,38,39.6,38.6,39.3,39.1 M41.3,34.7c-0.4,0.6-1.1,0.8-1.7,0.4c-4.3-2.6-10.9-3.4-15.9-1.9 c-0.7,0.2-1.4-0.2-1.6-0.8c-0.2-0.7,0.2-1.4,0.8-1.6c5.8-1.8,13-0.9,18,2.1C41.5,33.4,41.7,34.1,41.3,34.7 M41.5,30.2 c-5.2-3.1-13.7-3.3-18.6-1.9c-0.8,0.2-1.6-0.2-1.9-1c-0.2-0.8,0.2-1.6,1-1.9c5.7-1.7,15-1.4,21,2.1c0.7,0.4,0.9,1.3,0.5,2.1 C43.1,30.4,42.2,30.6,41.5,30.2"/></g>
		</symbol>
		<symbol id="icon-twitter" viewBox="24 16 16 32">
			<g><path d="M48,22.1c-1.2,0.5-2.4,0.9-3.8,1c1.4-0.8,2.4-2.1,2.9-3.6c-1.3,0.8-2.7,1.3-4.2,1.6 C41.7,19.8,40,19,38.2,19c-3.6,0-6.6,2.9-6.6,6.6c0,0.5,0.1,1,0.2,1.5c-5.5-0.3-10.3-2.9-13.5-6.9c-0.6,1-0.9,2.1-0.9,3.3 c0,2.3,1.2,4.3,2.9,5.5c-1.1,0-2.1-0.3-3-0.8c0,0,0,0.1,0,0.1c0,3.2,2.3,5.8,5.3,6.4c-0.6,0.1-1.1,0.2-1.7,0.2c-0.4,0-0.8,0-1.2-0.1 c0.8,2.6,3.3,4.5,6.1,4.6c-2.2,1.8-5.1,2.8-8.2,2.8c-0.5,0-1.1,0-1.6-0.1c2.9,1.9,6.4,2.9,10.1,2.9c12.1,0,18.7-10,18.7-18.7 c0-0.3,0-0.6,0-0.8C46,24.5,47.1,23.4,48,22.1z"/></g>
		</symbol>
		<symbol id="icon-youtube" viewBox="24 16 16 32">
			<g><path d="M46.7,26c0,0-0.3-2.1-1.2-3c-1.1-1.2-2.4-1.2-3-1.3C38.3,21.4,32,21.4,32,21.4h0 c0,0-6.3,0-10.5,0.3c-0.6,0.1-1.9,0.1-3,1.3c-0.9,0.9-1.2,3-1.2,3S17,28.4,17,30.9v2.3c0,2.4,0.3,4.9,0.3,4.9s0.3,2.1,1.2,3 c1.1,1.2,2.6,1.2,3.3,1.3c2.4,0.2,10.2,0.3,10.2,0.3s6.3,0,10.5-0.3c0.6-0.1,1.9-0.1,3-1.3c0.9-0.9,1.2-3,1.2-3s0.3-2.4,0.3-4.9 v-2.3C47,28.4,46.7,26,46.7,26z M28.9,35.9l0-8.4l8.1,4.2L28.9,35.9z"/></g>
		</symbol>
		<symbol id="icon-vimeo" viewBox="0 0 512 512">
			<g><path d="M469.1,156.7c-1.9,41.6-30.9,98.6-87,170.9c-58,75.5-107.1,113.3-147.2,113.3c-24.9,0-45.9-23-63.1-69c-11.5-42.2-23-84.3-34.4-126.5c-12.8-46-26.5-69-41.1-69c-3.2,0-14.4,6.7-33.5,20.1l-20.1-25.9c21.1-18.5,41.8-37.1,62.3-55.6c28.1-24.3,49.2-37.1,63.2-38.4c33.2-3.2,53.6,19.5,61.3,68.2c8.3,52.5,14,85.2,17.2,98c9.6,43.6,20.1,65.3,31.6,65.3c8.9,0,22.3-14.1,40.2-42.4c17.9-28.3,27.4-49.8,28.7-64.6c2.5-24.4-7-36.6-28.7-36.6c-10.2,0-20.7,2.4-31.6,7c21-68.8,61-102.2,120.2-100.3C451,72.5,471.7,101,469.1,156.7z"/></g>
		</symbol>
		<symbol id="icon-whatsapp" viewBox="0 0 512 512">
			<g><path d="M46,467l29.7-108.4C57.4,326.9,47.7,291,47.8,254.1C47.8,138.8,141.6,45,256.9,45c55.9,0,108.4,21.8,147.9,61.3c39.5,39.5,61.2,92.1,61.2,147.9c0,115.3-93.9,209.1-209.1,209.1c0,0,0,0,0,0h-0.1c-35,0-69.4-8.8-99.9-25.5L46,467z M162,400.1l6.3,3.8c26.7,15.8,57.3,24.2,88.5,24.2h0.1c95.8,0,173.8-78,173.8-173.8c0-46.4-18-90.1-50.9-123c-32.8-32.9-76.5-51-122.9-51c-95.9,0-173.8,78-173.9,173.8c0,32.8,9.2,64.8,26.6,92.5l4.1,6.6l-17.6,64.1L162,400.1z"/><path fill-rule="evenodd" clip-rule="evenodd" d="M362.2,304c-1.3-2.2-4.8-3.5-10-6.1c-5.2-2.6-30.9-15.3-35.7-17c-4.8-1.7-8.3-2.6-11.8,2.6c-3.5,5.2-13.5,17-16.5,20.5c-3,3.5-6.1,3.9-11.3,1.3c-5.2-2.6-22.1-8.1-42-25.9c-15.5-13.9-26-31-29.1-36.2c-3-5.2-0.3-8.1,2.3-10.7c2.4-2.3,5.2-6.1,7.8-9.2c2.6-3.1,3.5-5.2,5.2-8.7c1.7-3.5,0.9-6.5-0.4-9.2c-1.3-2.6-11.8-28.3-16.1-38.8c-4.2-10.2-8.5-8.8-11.8-9c-3-0.2-6.5-0.2-10-0.2c-3.5,0-9.1,1.3-13.9,6.5c-4.8,5.2-18.3,17.9-18.3,43.6c0,25.7,18.7,50.6,21.3,54.1c2.6,3.5,36.8,56.3,89.3,78.9c12.5,5.4,22.2,8.6,29.8,11c12.5,4,23.9,3.4,32.9,2.1c10-1.5,30.9-12.6,35.3-24.8C363.5,316.6,363.5,306.2,362.2,304z"/></g>
		</symbol>
	</defs>
</svg>
