<?xml version="1.0" encoding="utf-8"?>
<!-- Generator: Adobe Illustrator 17.0.0, SVG Export Plug-In . SVG Version: 6.00 Build 0)  -->
<!DOCTYPE svg PUBLIC "-//W3C//DTD SVG 1.0//EN" "http://www.w3.org/TR/2001/REC-SVG-20010904/DTD/svg10.dtd">
<svg version="1.0" id="header_1" xmlns="http://www.w3.org/2000/svg" xmlns:xlink="http://www.w3.org/1999/xlink" x="0px" y="0px"
	 width="96px" height="64px" viewBox="0 0 96 64" enable-background="new 0 0 96 64" xml:space="preserve">
<rect fill="#FFFFFF" width="96" height="64"/>
<rect fill="#777777" width="96" height="22"/>
<circle fill="#FFFFFF" cx="12" cy="11" r="6"/>
<g>
	<path fill="#FFFFFF" d="M31.8,13.5h-7.5C23,13.5,22,12.4,22,11l0,0c0-1.3,1-2.5,2.2-2.5h7.5c1.2,0,2.2,1.1,2.2,2.5l0,0
		C34,12.4,33,13.5,31.8,13.5z"/>
	<path fill="#FFFFFF" d="M47.8,13.5h-7.5C39,13.5,38,12.4,38,11l0,0c0-1.3,1-2.5,2.2-2.5h7.5c1.2,0,2.2,1.1,2.2,2.5l0,0
		C50,12.4,49,13.5,47.8,13.5z"/>
</g>
<path fill="#FFFFFF" d="M87.8,13.5h-7.5C79,13.5,78,12.4,78,11l0,0c0-1.3,1-2.5,2.2-2.5h7.5c1.2,0,2.2,1.1,2.2,2.5l0,0
	C90,12.4,89,13.5,87.8,13.5z"/>
</svg>
