<?xml version="1.0" encoding="utf-8"?>
<!-- Generator: Adobe Illustrator 17.0.0, SVG Export Plug-In . SVG Version: 6.00 Build 0)  -->
<!DOCTYPE svg PUBLIC "-//W3C//DTD SVG 1.0//EN" "http://www.w3.org/TR/2001/REC-SVG-20010904/DTD/svg10.dtd">
<svg version="1.0" id="header_2" xmlns="http://www.w3.org/2000/svg" xmlns:xlink="http://www.w3.org/1999/xlink" x="0px" y="0px"
	 width="96px" height="64px" viewBox="0 0 96 64" enable-background="new 0 0 96 64" xml:space="preserve">
<rect fill="#FFFFFF" width="96" height="64"/>
<rect fill="#777777" width="96" height="22"/>
<circle fill="#FFFFFF" cx="12" cy="11" r="6"/>
<g>
	<path fill="#FFFFFF" d="M43.8,13.5h-7.5C35,13.5,34,12.4,34,11l0,0c0-1.3,1-2.5,2.2-2.5h7.5c1.2,0,2.2,1.1,2.2,2.5l0,0
		C46,12.4,45,13.5,43.8,13.5z"/>
	<path fill="#FFFFFF" d="M59.8,13.5h-7.5C51,13.5,50,12.4,50,11l0,0c0-1.3,1-2.5,2.2-2.5h7.5c1.2,0,2.2,1.1,2.2,2.5l0,0
		C62,12.4,61,13.5,59.8,13.5z"/>
</g>
<path fill="#FFFFFF" d="M87.8,13.5h-7.5C79,13.5,78,12.4,78,11l0,0c0-1.3,1-2.5,2.2-2.5h7.5c1.2,0,2.2,1.1,2.2,2.5l0,0
	C90,12.4,89,13.5,87.8,13.5z"/>
</svg>
